<svg width="137" height="39" viewBox="0 0 137 39" fill="none" xmlns="http://www.w3.org/2000/svg">
<path d="M38.4023 5.85636C37.1979 6.07576 36.0405 6.25744 34.8846 6.45204C33.8074 6.63341 32.7304 6.8185 31.6557 7.02004C30.2004 7.29298 28.7418 7.54861 27.2949 7.875C25.6079 8.25557 23.9281 8.68381 22.2524 9.12887C20.0913 9.70287 17.915 10.2214 15.7852 10.9296C12.0167 12.1827 8.27195 13.5365 4.53087 14.8997C3.17736 15.3929 1.86357 16.0359 0.529799 16.6045C0.381683 16.6677 0.221329 16.6913 0.0666509 16.7333C0.0444339 16.6607 0.0222169 16.5882 0 16.5157C2.47851 15.2465 4.92966 13.8962 7.44268 12.7293C10.3663 11.3718 13.3077 10.0374 16.3076 8.94314C20.0877 7.56429 23.9165 6.3522 27.7592 5.23331C30.4012 4.46403 33.0969 3.93907 35.7791 3.37286C38.0328 2.8971 40.2978 2.48959 42.5646 2.10758C44.4945 1.78234 46.4315 1.50826 48.3702 1.26376C50.1633 1.0376 51.962 0.869422 53.7598 0.697291C54.9563 0.582729 56.1545 0.480918 57.3536 0.417943C59.5089 0.304753 61.6649 0.200188 63.8216 0.137791C66.3858 0.0636022 68.951 0.0133706 71.516 0.000473052C72.9231 -0.00660283 74.3312 0.0669683 75.7377 0.136278C77.196 0.208139 78.6537 0.304332 80.1102 0.41634C81.7184 0.540021 83.3265 0.673286 84.9318 0.840271C86.4709 1.00038 88.0096 1.17906 89.5426 1.40449C91.2021 1.64852 92.8548 1.95632 94.5106 2.23584C96.185 2.51852 97.8653 2.76054 99.5325 3.09362C101.42 3.47071 103.306 3.87638 105.174 4.36503C107.844 5.0633 110.507 5.80459 113.154 6.61007C115.236 7.24346 117.318 7.90768 119.351 8.72506C123.052 10.2129 126.738 11.7599 130.388 13.4116C132.249 14.2537 134.018 15.3759 135.827 16.375C135.917 16.4248 135.994 16.5082 136.025 16.7163C135.323 16.4156 134.623 16.104 133.917 15.8163C131.977 15.0263 130.055 14.1653 128.089 13.48C124.57 12.2538 121.039 11.0681 117.485 9.99551C114.926 9.22343 112.329 8.61799 109.735 8.02197C107.775 7.5717 105.793 7.25296 103.821 6.87736C102.097 6.54895 100.376 6.18819 98.6464 5.90638C97.176 5.66684 95.6943 5.52286 94.2181 5.33055C92.4511 5.10033 90.6867 4.8404 88.9174 4.63794C87.7231 4.50127 86.523 4.42812 85.3243 4.35053C82.9989 4.20002 80.6726 4.06676 78.3468 3.92557C77.598 3.88012 76.8497 3.80127 76.1006 3.79063C72.039 3.73291 67.9772 3.64671 63.9157 3.66089C61.2406 3.67023 58.5654 3.81714 55.8912 3.93269C54.6121 3.98796 53.3346 4.10308 52.0575 4.20983C50.5094 4.33923 48.9613 4.47138 47.4155 4.6338C45.8368 4.79969 44.2595 4.98704 42.6845 5.19599C41.2709 5.38354 39.8613 5.61319 38.4023 5.85636Z" fill="black"/>
<path d="M67.1942 26.9771C67.6833 29.7484 67.5975 32.3354 66.099 34.6651C64.8907 36.5436 63.2659 37.5678 61.3168 37.7754C59.7007 37.9475 58.0673 37.9012 56.4414 37.9384C55.6887 37.9556 54.9356 37.9413 54.1602 37.9413C54.1602 32.3013 54.1602 26.7176 54.1602 21.0763C56.5111 21.0763 58.8546 20.8842 61.1652 21.1258C63.9516 21.4171 66.2417 23.3509 67.1889 26.7773C67.2007 26.8198 67.1911 26.8704 67.1942 26.9771ZM57.3382 34.7007C58.4442 34.6566 59.5585 34.6956 60.6537 34.5441C61.6851 34.4014 62.5583 33.8374 63.2573 32.8457C64.1576 31.5687 64.3212 30.1015 64.1772 28.5814C64.0246 26.9705 63.2462 25.3924 61.6601 24.7005C60.2068 24.0665 58.7472 24.453 57.2573 24.2869C57.2573 27.7825 57.2573 31.1931 57.3382 34.7007Z" fill="black"/>
<path d="M27.5254 36.4438C26.914 35.1546 26.3198 33.9152 25.7466 32.6625C25.5539 32.2414 25.3421 31.9765 24.8832 32.0247C24.3688 32.0788 23.8471 32.0371 23.2812 32.0371C23.2812 33.9771 23.2812 35.9082 23.2812 37.8895C22.2289 37.8895 21.2219 37.8895 20.1719 37.8895C20.1719 32.3457 20.1719 26.762 20.1719 21.1147C20.2818 21.104 20.4316 21.0769 20.5815 21.0767C22.936 21.074 25.2916 21.0252 27.6449 21.0904C29.5636 21.1435 31.2923 22.9379 31.633 25.1421C31.89 26.8044 31.7665 28.3623 30.9086 29.7714C30.3558 30.6792 29.6032 31.2402 28.6559 31.5251C29.722 33.6299 30.7882 35.7348 31.9051 37.9398C30.688 37.9398 29.5651 37.9561 28.4434 37.9212C28.2862 37.9164 28.0911 37.6944 27.9902 37.5138C27.8125 37.196 27.694 36.8327 27.5254 36.4438ZM28.2717 25.4134C27.8637 25.0883 27.4731 24.5263 27.0444 24.4829C25.7969 24.3567 24.5342 24.4382 23.2735 24.4382C23.2735 25.7947 23.2735 27.2097 23.2735 28.6641C24.3572 28.6641 25.4144 28.5998 26.4636 28.6801C27.839 28.7854 29.0435 26.9763 28.2717 25.4134Z" fill="black"/>
<path d="M117.894 29.7599C118.772 30.9337 118.973 32.285 118.762 33.7122C118.358 36.4584 116.781 37.7054 114.563 38.0843C112.089 38.5071 109.757 38.1273 107.673 36.3891C107.384 36.1488 107.142 35.8322 106.844 35.5132C107.345 34.6779 107.854 33.8685 108.322 33.0266C108.493 32.7174 108.576 32.6952 108.85 32.8978C109.675 33.5081 110.493 34.1766 111.391 34.5961C112.342 35.0406 113.398 35.1727 114.392 34.6923C114.785 34.5023 115.158 34.1469 115.436 33.7632C115.764 33.3102 115.652 32.5896 115.165 32.328C114.319 31.8731 113.433 31.4871 112.532 31.2133C111.014 30.7517 109.45 30.3889 108.306 29.024C106.702 27.1079 107.174 23.6966 108.885 22.1925C110.559 20.7209 112.427 20.6371 114.393 20.92C115.966 21.1465 117.3 21.9009 118.52 23.1467C117.965 24.0396 117.437 24.9041 116.885 25.7469C116.84 25.816 116.587 25.7987 116.504 25.7177C115.407 24.6376 114.091 24.2103 112.716 24.0517C112.109 23.9816 111.479 24.1564 110.994 24.7039C110.413 25.3598 110.466 26.1792 111.207 26.5429C112.051 26.9565 112.942 27.2471 113.826 27.5344C115.277 28.006 116.768 28.3548 117.894 29.7599Z" fill="black"/>
<path d="M86.2412 21.6571C84.7793 26.1414 83.3173 30.5685 81.8611 34.998C81.5919 35.8171 81.3348 36.6422 81.0941 37.4733C81.0026 37.7889 80.9006 37.9572 80.5728 37.9497C79.3768 37.9222 78.1799 37.9388 76.9749 37.9388C75.1398 32.3499 73.309 26.7741 71.4375 21.0745C72.6413 21.0745 73.7638 21.0631 74.8855 21.0919C74.9983 21.0948 75.1605 21.318 75.209 21.4771C76.1796 24.6552 77.1335 27.8402 78.0991 31.0204C78.3468 31.8365 78.623 32.6407 78.9533 33.6572C80.2863 29.3431 81.5612 25.2167 82.838 21.0844C84.0232 21.0844 85.1995 21.0844 86.4412 21.0844C86.3697 21.2708 86.3064 21.4357 86.2412 21.6571Z" fill="black"/>
<path d="M13.5726 36.2902C11.8766 37.9208 9.93602 38.4726 7.84994 38.2008C5.82878 37.9375 4.16899 36.7679 2.9068 34.9059C1.76813 33.2261 1.26293 31.2591 1.33483 29.122C1.44712 25.7845 3.16405 22.6017 6.00937 21.3516C9.17494 19.9608 11.939 20.7299 14.3352 23.4799C14.4344 23.5937 14.5321 23.7118 14.6155 23.8412C14.6967 23.9672 14.7585 24.1104 14.8347 24.2572C14.0187 24.9807 13.188 25.7173 12.3599 26.4516C10.1372 23.3797 6.98995 24.0737 5.49961 26.2344C4.0609 28.3201 4.07584 30.9463 5.72883 33.0259C7.28906 34.9889 10.1388 35.412 12.3573 32.5438C13.1624 33.2765 13.9716 34.0129 14.8984 34.8562C14.4232 35.369 14.0132 35.8113 13.5726 36.2902Z" fill="black"/>
<path d="M127.677 27.6791C127.677 26.5347 127.677 25.4605 127.677 24.3306C126.286 24.3306 124.919 24.3306 123.52 24.3306C123.52 23.235 123.52 22.1942 123.52 21.1133C127.313 21.1133 131.114 21.1133 134.949 21.1133C134.949 22.1444 134.949 23.1852 134.949 24.2824C133.591 24.2824 132.224 24.2824 130.811 24.2824C130.811 28.8448 130.811 33.3518 130.811 37.8986C129.759 37.8986 128.752 37.8986 127.677 37.8986C127.677 34.5213 127.677 31.1353 127.677 27.6791Z" fill="black"/>
<path d="M44.0825 31.3346C41.9497 31.3346 39.8769 31.3346 37.7695 31.3346C37.7695 30.1239 37.7695 28.9427 37.7695 27.7207C41.1626 27.7207 44.564 27.7207 48.0001 27.7207C48.0001 28.8911 48.0001 30.0723 48.0001 31.3346C46.7204 31.3346 45.4314 31.3346 44.0825 31.3346Z" fill="black"/>
<path d="M43.1244 24.7272C41.311 24.7272 39.5575 24.7272 37.7695 24.7272C37.7695 23.5164 37.7695 22.3351 37.7695 21.1133C41.1628 21.1133 44.5642 21.1133 48.0003 21.1133C48.0003 22.2839 48.0003 23.4652 48.0003 24.7272C46.4009 24.7272 44.7926 24.7272 43.1244 24.7272Z" fill="black"/>
<path d="M38.7016 34.2852C41.8308 34.2852 44.9012 34.2852 48.0042 34.2852C48.0042 35.5004 48.0042 36.6817 48.0042 37.9013C44.6052 37.9013 41.2036 37.9013 37.7695 37.9013C37.7695 36.7232 37.7695 35.5419 37.7695 34.2852C38.0588 34.2852 38.3507 34.2852 38.7016 34.2852Z" fill="black"/>
<path d="M95.1016 31.3348C93.8868 31.3348 92.732 31.3348 91.543 31.3348C91.543 30.1237 91.543 28.9424 91.543 27.7207C94.8967 27.7207 98.2583 27.7207 101.654 27.7207C101.654 28.8918 101.654 30.0731 101.654 31.3348C99.4955 31.3348 97.3284 31.3348 95.1016 31.3348Z" fill="black"/>
<path d="M98.2154 21.0723C99.3903 21.0723 100.505 21.0723 101.654 21.0723C101.654 22.2834 101.654 23.4647 101.654 24.6864C98.3005 24.6864 94.939 24.6864 91.543 24.6864C91.543 23.5153 91.543 22.334 91.543 21.0723C93.7417 21.0723 95.9486 21.0723 98.2154 21.0723Z" fill="black"/>
<path d="M92.4706 37.9416C92.1343 37.9416 91.8569 37.9416 91.543 37.9416C91.543 36.736 91.543 35.5546 91.543 34.3301C94.89 34.3301 98.2518 34.3301 101.65 34.3301C101.65 35.4938 101.65 36.6752 101.65 37.9416C98.619 37.9416 95.5743 37.9416 92.4706 37.9416Z" fill="black"/>
</svg>
